<svg width="200" height="200" viewBox="0 0 200 200" fill="none" xmlns="http://www.w3.org/2000/svg">
  <circle cx="100" cy="100" r="96" fill="#EFE7FF"/>
  <circle cx="100" cy="92" r="46" fill="#F3CDBA"/>
  <path d="M52 96C52 60 72 38 100 38C128 38 148 60 148 96V104C132 120 116 128 100 128C84 128 68 120 52 104V96Z" fill="#4B2FBE"/>
  <path d="M70 146C70 128 84 114 100 114C116 114 130 128 130 146V168H70V146Z" fill="#6A4DF3"/>
  <circle cx="83" cy="92" r="5" fill="#3B2C2C"/>
  <circle cx="117" cy="92" r="5" fill="#3B2C2C"/>
  <path d="M88 112C94 116 106 116 112 112" stroke="#C06B5A" stroke-width="4" stroke-linecap="round"/>
</svg>
